<?xml version="1.0" encoding="UTF-8"?>
<svg xmlns="http://www.w3.org/2000/svg" xmlns:xlink="http://www.w3.org/1999/xlink" width="854" height="480" viewBox="0 0 854 480">
<defs>
<g>
<g id="glyph-0-0">
<path d="M 3.671875 0.140625 C 2.847656 0.140625 2.195312 0.0390625 1.71875 -0.15625 C 1.238281 -0.351562 0.898438 -0.601562 0.703125 -0.90625 C 0.515625 -1.207031 0.421875 -1.507812 0.421875 -1.8125 C 0.421875 -2.125 0.492188 -2.375 0.640625 -2.5625 C 0.785156 -2.75 0.976562 -2.882812 1.21875 -2.96875 C 1.457031 -3.050781 1.710938 -3.09375 1.984375 -3.09375 C 1.984375 -2.3125 2.160156 -1.710938 2.515625 -1.296875 C 2.878906 -0.890625 3.335938 -0.6875 3.890625 -0.6875 C 4.429688 -0.6875 4.851562 -0.832031 5.15625 -1.125 C 5.457031 -1.414062 5.609375 -1.769531 5.609375 -2.1875 C 5.609375 -2.664062 5.414062 -3.046875 5.03125 -3.328125 C 4.644531 -3.617188 4.066406 -3.921875 3.296875 -4.234375 C 2.640625 -4.503906 2.125 -4.785156 1.75 -5.078125 C 1.375 -5.367188 1.101562 -5.691406 0.9375 -6.046875 C 0.769531 -6.398438 0.6875 -6.804688 0.6875 -7.265625 C 0.6875 -7.828125 0.832031 -8.316406 1.125 -8.734375 C 1.425781 -9.148438 1.832031 -9.472656 2.34375 -9.703125 C 2.863281 -9.941406 3.445312 -10.0625 4.09375 -10.0625 C 5.113281 -10.0625 5.863281 -9.90625 6.34375 -9.59375 C 6.820312 -9.28125 7.0625 -8.898438 7.0625 -8.453125 C 7.0625 -8.117188 6.914062 -7.84375 6.625 -7.625 C 6.34375 -7.40625 5.914062 -7.296875 5.34375 -7.296875 C 5.34375 -7.554688 5.296875 -7.832031 5.203125 -8.125 C 5.109375 -8.425781 4.953125 -8.679688 4.734375 -8.890625 C 4.523438 -9.097656 4.238281 -9.203125 3.875 -9.203125 C 3.5 -9.203125 3.175781 -9.09375 2.90625 -8.875 C 2.632812 -8.664062 2.5 -8.351562 2.5 -7.9375 C 2.5 -7.675781 2.554688 -7.429688 2.671875 -7.203125 C 2.796875 -6.984375 3.023438 -6.765625 3.359375 -6.546875 C 3.691406 -6.328125 4.171875 -6.09375 4.796875 -5.84375 C 5.742188 -5.457031 6.421875 -5.039062 6.828125 -4.59375 C 7.242188 -4.15625 7.453125 -3.59375 7.453125 -2.90625 C 7.453125 -2.3125 7.296875 -1.785156 6.984375 -1.328125 C 6.671875 -0.867188 6.226562 -0.507812 5.65625 -0.25 C 5.09375 0.0078125 4.429688 0.140625 3.671875 0.140625 Z "/>
</g>
<g id="glyph-0-1">
<path d="M 3.578125 0.140625 C 2.859375 0.140625 2.300781 -0.0820312 1.90625 -0.53125 C 1.519531 -0.976562 1.328125 -1.671875 1.328125 -2.609375 L 1.328125 -5.71875 C 1.328125 -6.125 1.253906 -6.390625 1.109375 -6.515625 C 0.960938 -6.640625 0.722656 -6.703125 0.390625 -6.703125 L 0.359375 -6.703125 L 0.359375 -7.453125 L 3.4375 -7.453125 L 3.4375 -3 C 3.4375 -2.40625 3.507812 -1.929688 3.65625 -1.578125 C 3.8125 -1.222656 4.09375 -1.046875 4.5 -1.046875 C 4.945312 -1.046875 5.269531 -1.234375 5.46875 -1.609375 C 5.664062 -1.992188 5.765625 -2.507812 5.765625 -3.15625 L 5.765625 -5.8125 C 5.765625 -6.226562 5.664062 -6.476562 5.46875 -6.5625 C 5.269531 -6.65625 5.035156 -6.703125 4.765625 -6.703125 L 4.71875 -6.703125 L 4.71875 -7.453125 L 7.875 -7.453125 L 7.875 -1.609375 C 7.875 -1.210938 7.960938 -0.96875 8.140625 -0.875 C 8.316406 -0.78125 8.539062 -0.734375 8.8125 -0.734375 L 8.921875 -0.734375 L 8.921875 0 L 6.15625 0 L 5.84375 -0.984375 L 5.78125 -0.984375 C 5.5 -0.503906 5.171875 -0.195312 4.796875 -0.0625 C 4.421875 0.0703125 4.015625 0.140625 3.578125 0.140625 Z "/>
</g>
<g id="glyph-0-2">
<path d="M 0.28125 0 L 0.28125 -0.734375 L 0.3125 -0.734375 C 0.632812 -0.734375 0.894531 -0.789062 1.09375 -0.90625 C 1.289062 -1.019531 1.390625 -1.296875 1.390625 -1.734375 L 1.390625 -5.765625 C 1.390625 -6.171875 1.296875 -6.425781 1.109375 -6.53125 C 0.929688 -6.644531 0.691406 -6.703125 0.390625 -6.703125 L 0.34375 -6.703125 L 0.34375 -7.453125 L 3.15625 -7.453125 L 3.4375 -6.359375 L 3.5 -6.359375 C 3.6875 -6.773438 3.914062 -7.085938 4.1875 -7.296875 C 4.46875 -7.503906 4.890625 -7.609375 5.453125 -7.609375 C 6.523438 -7.609375 7.0625 -7.234375 7.0625 -6.484375 C 7.0625 -6.054688 6.90625 -5.722656 6.59375 -5.484375 C 6.28125 -5.253906 5.847656 -5.140625 5.296875 -5.140625 C 5.296875 -5.515625 5.25 -5.800781 5.15625 -6 C 5.0625 -6.195312 4.878906 -6.296875 4.609375 -6.296875 C 4.367188 -6.296875 4.175781 -6.210938 4.03125 -6.046875 C 3.882812 -5.878906 3.769531 -5.671875 3.6875 -5.421875 C 3.613281 -5.179688 3.5625 -4.9375 3.53125 -4.6875 C 3.507812 -4.4375 3.5 -4.226562 3.5 -4.0625 L 3.5 -1.671875 C 3.5 -1.265625 3.59375 -1.003906 3.78125 -0.890625 C 3.96875 -0.785156 4.195312 -0.734375 4.46875 -0.734375 L 4.921875 -0.734375 L 4.921875 0 Z "/>
</g>
<g id="glyph-0-3">
<path d="M 1.109375 -6.046875 C 1.015625 -6.304688 0.878906 -6.476562 0.703125 -6.5625 C 0.535156 -6.65625 0.300781 -6.703125 0 -6.703125 L 0 -7.453125 L 4.3125 -7.453125 L 4.3125 -6.703125 L 3.71875 -6.703125 C 3.414062 -6.703125 3.265625 -6.554688 3.265625 -6.265625 C 3.265625 -6.148438 3.273438 -6.035156 3.296875 -5.921875 C 3.328125 -5.816406 3.359375 -5.726562 3.390625 -5.65625 L 4.3125 -3.03125 C 4.414062 -2.738281 4.515625 -2.4375 4.609375 -2.125 C 4.710938 -1.8125 4.78125 -1.535156 4.8125 -1.296875 C 4.863281 -1.515625 4.925781 -1.765625 5 -2.046875 C 5.070312 -2.328125 5.140625 -2.5625 5.203125 -2.75 L 6.15625 -5.546875 C 6.195312 -5.671875 6.234375 -5.796875 6.265625 -5.921875 C 6.296875 -6.054688 6.3125 -6.1875 6.3125 -6.3125 C 6.3125 -6.46875 6.257812 -6.570312 6.15625 -6.625 C 6.050781 -6.675781 5.921875 -6.703125 5.765625 -6.703125 L 5.359375 -6.703125 L 5.359375 -7.453125 L 8.421875 -7.453125 L 8.421875 -6.703125 L 8.140625 -6.703125 C 7.953125 -6.703125 7.789062 -6.644531 7.65625 -6.53125 C 7.53125 -6.414062 7.390625 -6.132812 7.234375 -5.6875 L 5.21875 0 L 3.390625 0 Z "/>
</g>
<g id="glyph-0-4">
<path d="M 2.375 -8.703125 C 2.039062 -8.703125 1.757812 -8.78125 1.53125 -8.9375 C 1.300781 -9.101562 1.1875 -9.359375 1.1875 -9.703125 C 1.1875 -10.046875 1.300781 -10.296875 1.53125 -10.453125 C 1.757812 -10.617188 2.039062 -10.703125 2.375 -10.703125 C 2.695312 -10.703125 2.972656 -10.617188 3.203125 -10.453125 C 3.441406 -10.296875 3.5625 -10.046875 3.5625 -9.703125 C 3.5625 -9.359375 3.441406 -9.101562 3.203125 -8.9375 C 2.972656 -8.78125 2.695312 -8.703125 2.375 -8.703125 Z M 0.234375 0 L 0.234375 -0.734375 L 0.40625 -0.734375 C 0.539062 -0.734375 0.679688 -0.753906 0.828125 -0.796875 C 0.984375 -0.835938 1.113281 -0.921875 1.21875 -1.046875 C 1.332031 -1.179688 1.390625 -1.378906 1.390625 -1.640625 L 1.390625 -5.859375 C 1.390625 -6.109375 1.332031 -6.289062 1.21875 -6.40625 C 1.113281 -6.53125 0.984375 -6.609375 0.828125 -6.640625 C 0.671875 -6.679688 0.53125 -6.703125 0.40625 -6.703125 L 0.234375 -6.703125 L 0.234375 -7.453125 L 3.5 -7.453125 L 3.5 -1.640625 C 3.5 -1.378906 3.550781 -1.179688 3.65625 -1.046875 C 3.757812 -0.921875 3.890625 -0.835938 4.046875 -0.796875 C 4.210938 -0.753906 4.359375 -0.734375 4.484375 -0.734375 L 4.65625 -0.734375 L 4.65625 0 Z "/>
</g>
<g id="glyph-0-5">
<path d="M 2.8125 0.140625 C 2.195312 0.140625 1.675781 -0.0390625 1.25 -0.40625 C 0.832031 -0.78125 0.625 -1.351562 0.625 -2.125 C 0.625 -2.875 0.882812 -3.425781 1.40625 -3.78125 C 1.925781 -4.144531 2.703125 -4.347656 3.734375 -4.390625 L 4.875 -4.4375 L 4.875 -5.1875 C 4.875 -5.65625 4.820312 -6.035156 4.71875 -6.328125 C 4.625 -6.628906 4.390625 -6.78125 4.015625 -6.78125 C 3.660156 -6.78125 3.414062 -6.640625 3.28125 -6.359375 C 3.144531 -6.078125 3.078125 -5.71875 3.078125 -5.28125 C 2.460938 -5.28125 1.992188 -5.347656 1.671875 -5.484375 C 1.359375 -5.617188 1.203125 -5.859375 1.203125 -6.203125 C 1.203125 -6.546875 1.332031 -6.816406 1.59375 -7.015625 C 1.851562 -7.222656 2.203125 -7.375 2.640625 -7.46875 C 3.078125 -7.570312 3.550781 -7.625 4.0625 -7.625 C 5.039062 -7.625 5.769531 -7.445312 6.25 -7.09375 C 6.738281 -6.75 6.984375 -6.140625 6.984375 -5.265625 L 6.984375 -1.71875 C 6.984375 -1.34375 7.039062 -1.082031 7.15625 -0.9375 C 7.28125 -0.800781 7.503906 -0.734375 7.828125 -0.734375 L 7.875 -0.734375 L 7.875 0 L 5.296875 0 L 5 -0.953125 L 4.875 -0.953125 C 4.664062 -0.703125 4.472656 -0.492188 4.296875 -0.328125 C 4.117188 -0.171875 3.910156 -0.0546875 3.671875 0.015625 C 3.441406 0.0976562 3.15625 0.140625 2.8125 0.140625 Z M 3.5625 -0.875 C 3.96875 -0.875 4.285156 -1.035156 4.515625 -1.359375 C 4.753906 -1.679688 4.875 -2.113281 4.875 -2.65625 L 4.875 -3.6875 L 4.25 -3.65625 C 3.695312 -3.625 3.3125 -3.472656 3.09375 -3.203125 C 2.882812 -2.941406 2.78125 -2.5625 2.78125 -2.0625 C 2.78125 -1.269531 3.039062 -0.875 3.5625 -0.875 Z "/>
</g>
<g id="glyph-0-6">
<path d="M 0.234375 0 L 0.234375 -0.734375 L 0.40625 -0.734375 C 0.539062 -0.734375 0.679688 -0.753906 0.828125 -0.796875 C 0.984375 -0.835938 1.113281 -0.921875 1.21875 -1.046875 C 1.332031 -1.179688 1.390625 -1.378906 1.390625 -1.640625 L 1.390625 -8.96875 C 1.390625 -9.21875 1.332031 -9.398438 1.21875 -9.515625 C 1.113281 -9.640625 0.984375 -9.722656 0.828125 -9.765625 C 0.671875 -9.804688 0.53125 -9.828125 0.40625 -9.828125 L 0.234375 -9.828125 L 0.234375 -10.5625 L 3.5 -10.5625 L 3.5 -1.640625 C 3.5 -1.378906 3.550781 -1.179688 3.65625 -1.046875 C 3.757812 -0.921875 3.890625 -0.835938 4.046875 -0.796875 C 4.210938 -0.753906 4.359375 -0.734375 4.484375 -0.734375 L 4.65625 -0.734375 L 4.65625 0 Z "/>
</g>
<g id="glyph-0-7">
</g>
<g id="glyph-0-8">
<path d="M 0.390625 0 L 0.390625 -0.734375 L 0.96875 -0.734375 C 1.175781 -0.734375 1.347656 -0.785156 1.484375 -0.890625 C 1.617188 -0.992188 1.6875 -1.242188 1.6875 -1.640625 L 1.6875 -8.328125 C 1.6875 -8.703125 1.613281 -8.9375 1.46875 -9.03125 C 1.332031 -9.132812 1.164062 -9.1875 0.96875 -9.1875 L 0.390625 -9.1875 L 0.390625 -9.921875 L 4.65625 -9.921875 C 5.9375 -9.921875 6.890625 -9.65625 7.515625 -9.125 C 8.140625 -8.59375 8.453125 -7.875 8.453125 -6.96875 C 8.453125 -6.414062 8.316406 -5.894531 8.046875 -5.40625 C 7.785156 -4.925781 7.351562 -4.535156 6.75 -4.234375 C 6.144531 -3.941406 5.34375 -3.796875 4.34375 -3.796875 L 3.875 -3.796875 L 3.875 -1.5625 C 3.875 -1.195312 3.945312 -0.96875 4.09375 -0.875 C 4.238281 -0.78125 4.410156 -0.734375 4.609375 -0.734375 L 5.453125 -0.734375 L 5.453125 0 Z M 4.203125 -4.59375 C 4.890625 -4.59375 5.378906 -4.769531 5.671875 -5.125 C 5.960938 -5.488281 6.109375 -6.085938 6.109375 -6.921875 C 6.109375 -7.660156 5.976562 -8.207031 5.71875 -8.5625 C 5.46875 -8.914062 5.035156 -9.09375 4.421875 -9.09375 L 3.875 -9.09375 L 3.875 -4.59375 Z "/>
</g>
<g id="glyph-0-9">
<path d="M 0.28125 0 L 0.28125 -0.734375 L 0.3125 -0.734375 C 0.625 -0.734375 0.882812 -0.785156 1.09375 -0.890625 C 1.300781 -1.003906 1.40625 -1.269531 1.40625 -1.6875 L 1.390625 -8.96875 C 1.390625 -9.21875 1.332031 -9.398438 1.21875 -9.515625 C 1.113281 -9.640625 0.984375 -9.722656 0.828125 -9.765625 C 0.671875 -9.804688 0.53125 -9.828125 0.40625 -9.828125 L 0.234375 -9.828125 L 0.234375 -10.5625 L 3.5 -10.5625 L 3.5 -8.265625 C 3.5 -8.023438 3.488281 -7.765625 3.46875 -7.484375 C 3.445312 -7.210938 3.425781 -6.976562 3.40625 -6.78125 C 3.394531 -6.59375 3.390625 -6.5 3.390625 -6.5 L 3.515625 -6.5 C 3.703125 -6.851562 3.898438 -7.109375 4.109375 -7.265625 C 4.328125 -7.421875 4.5625 -7.519531 4.8125 -7.5625 C 5.070312 -7.601562 5.347656 -7.625 5.640625 -7.625 C 6.347656 -7.625 6.90625 -7.410156 7.3125 -6.984375 C 7.726562 -6.554688 7.9375 -5.875 7.9375 -4.9375 L 7.9375 -1.71875 C 7.9375 -1.289062 8.007812 -1.019531 8.15625 -0.90625 C 8.3125 -0.789062 8.546875 -0.734375 8.859375 -0.734375 L 8.90625 -0.734375 L 8.90625 0 L 5.8125 0 L 5.8125 -4.5625 C 5.8125 -5.164062 5.726562 -5.628906 5.5625 -5.953125 C 5.394531 -6.273438 5.109375 -6.4375 4.703125 -6.4375 C 4.398438 -6.4375 4.160156 -6.335938 3.984375 -6.140625 C 3.804688 -5.941406 3.679688 -5.675781 3.609375 -5.34375 C 3.535156 -5.019531 3.5 -4.671875 3.5 -4.296875 L 3.515625 -1.640625 C 3.515625 -1.253906 3.601562 -1.003906 3.78125 -0.890625 C 3.957031 -0.785156 4.195312 -0.734375 4.5 -0.734375 L 4.546875 -0.734375 L 4.546875 0 Z "/>
</g>
<g id="glyph-0-10">
<path d="M 4.25 0.140625 C 3.070312 0.140625 2.175781 -0.191406 1.5625 -0.859375 C 0.957031 -1.535156 0.65625 -2.476562 0.65625 -3.6875 C 0.65625 -4.988281 0.953125 -5.96875 1.546875 -6.625 C 2.148438 -7.289062 3 -7.625 4.09375 -7.625 C 5.101562 -7.625 5.894531 -7.34375 6.46875 -6.78125 C 7.050781 -6.21875 7.34375 -5.382812 7.34375 -4.28125 L 7.34375 -3.5625 L 2.796875 -3.5625 C 2.816406 -2.644531 2.988281 -1.972656 3.3125 -1.546875 C 3.632812 -1.117188 4.082031 -0.90625 4.65625 -0.90625 C 5.132812 -0.90625 5.539062 -1.015625 5.875 -1.234375 C 6.207031 -1.453125 6.453125 -1.71875 6.609375 -2.03125 C 6.859375 -1.882812 6.984375 -1.65625 6.984375 -1.34375 C 6.984375 -0.945312 6.757812 -0.597656 6.3125 -0.296875 C 5.875 -0.00390625 5.1875 0.140625 4.25 0.140625 Z M 5.21875 -4.453125 C 5.21875 -5.171875 5.132812 -5.726562 4.96875 -6.125 C 4.800781 -6.519531 4.519531 -6.71875 4.125 -6.71875 C 3.738281 -6.71875 3.425781 -6.523438 3.1875 -6.140625 C 2.957031 -5.753906 2.832031 -5.191406 2.8125 -4.453125 Z "/>
</g>
<g id="glyph-0-11">
<path d="M 0.28125 0 L 0.28125 -0.734375 L 0.3125 -0.734375 C 0.625 -0.734375 0.878906 -0.785156 1.078125 -0.890625 C 1.285156 -1.003906 1.390625 -1.269531 1.390625 -1.6875 L 1.390625 -5.8125 C 1.390625 -6.195312 1.296875 -6.441406 1.109375 -6.546875 C 0.929688 -6.648438 0.691406 -6.703125 0.390625 -6.703125 L 0.34375 -6.703125 L 0.34375 -7.453125 L 3.265625 -7.453125 L 3.4375 -6.453125 L 3.515625 -6.453125 C 3.703125 -6.804688 3.898438 -7.0625 4.109375 -7.21875 C 4.328125 -7.382812 4.5625 -7.492188 4.8125 -7.546875 C 5.070312 -7.597656 5.347656 -7.625 5.640625 -7.625 C 6.347656 -7.625 6.90625 -7.410156 7.3125 -6.984375 C 7.726562 -6.554688 7.9375 -5.875 7.9375 -4.9375 L 7.9375 -1.71875 C 7.9375 -1.289062 8.007812 -1.019531 8.15625 -0.90625 C 8.3125 -0.789062 8.546875 -0.734375 8.859375 -0.734375 L 8.90625 -0.734375 L 8.90625 0 L 5.8125 0 L 5.8125 -4.5625 C 5.8125 -5.164062 5.726562 -5.628906 5.5625 -5.953125 C 5.394531 -6.273438 5.109375 -6.4375 4.703125 -6.4375 C 4.398438 -6.4375 4.160156 -6.335938 3.984375 -6.140625 C 3.804688 -5.941406 3.679688 -5.675781 3.609375 -5.34375 C 3.535156 -5.019531 3.5 -4.671875 3.5 -4.296875 L 3.5 -1.640625 C 3.5 -1.253906 3.585938 -1.003906 3.765625 -0.890625 C 3.953125 -0.785156 4.195312 -0.734375 4.5 -0.734375 L 4.546875 -0.734375 L 4.546875 0 Z "/>
</g>
<g id="glyph-0-12">
<path d="M 4.234375 0.140625 C 3.117188 0.140625 2.242188 -0.179688 1.609375 -0.828125 C 0.972656 -1.472656 0.65625 -2.445312 0.65625 -3.75 C 0.65625 -5.050781 0.957031 -6.019531 1.5625 -6.65625 C 2.175781 -7.300781 3.082031 -7.625 4.28125 -7.625 C 5.382812 -7.625 6.253906 -7.300781 6.890625 -6.65625 C 7.535156 -6.019531 7.859375 -5.050781 7.859375 -3.75 C 7.859375 -2.445312 7.550781 -1.472656 6.9375 -0.828125 C 6.320312 -0.179688 5.421875 0.140625 4.234375 0.140625 Z M 4.265625 -0.734375 C 4.796875 -0.734375 5.164062 -0.988281 5.375 -1.5 C 5.59375 -2.019531 5.703125 -2.769531 5.703125 -3.75 C 5.703125 -4.738281 5.59375 -5.484375 5.375 -5.984375 C 5.164062 -6.484375 4.789062 -6.734375 4.25 -6.734375 C 3.707031 -6.734375 3.332031 -6.484375 3.125 -5.984375 C 2.914062 -5.484375 2.8125 -4.738281 2.8125 -3.75 C 2.8125 -2.769531 2.914062 -2.019531 3.125 -1.5 C 3.34375 -0.988281 3.722656 -0.734375 4.265625 -0.734375 Z "/>
</g>
<g id="glyph-0-13">
<path d="M 3.375 0.140625 C 2.75 0.140625 2.25 -0.0195312 1.875 -0.34375 C 1.507812 -0.664062 1.328125 -1.238281 1.328125 -2.0625 L 1.328125 -6.5 L 0.296875 -6.5 L 0.296875 -7.203125 C 0.585938 -7.203125 0.847656 -7.265625 1.078125 -7.390625 C 1.316406 -7.515625 1.507812 -7.648438 1.65625 -7.796875 C 1.9375 -8.097656 2.148438 -8.554688 2.296875 -9.171875 L 3.4375 -9.171875 L 3.4375 -7.453125 L 5.21875 -7.453125 L 5.21875 -6.5 L 3.4375 -6.5 L 3.4375 -2.1875 C 3.4375 -1.769531 3.507812 -1.460938 3.65625 -1.265625 C 3.800781 -1.078125 4.035156 -0.984375 4.359375 -0.984375 C 4.546875 -0.984375 4.71875 -0.992188 4.875 -1.015625 C 5.039062 -1.046875 5.195312 -1.078125 5.34375 -1.109375 L 5.34375 -0.203125 C 5.195312 -0.140625 4.953125 -0.0664062 4.609375 0.015625 C 4.273438 0.0976562 3.863281 0.140625 3.375 0.140625 Z "/>
</g>
<g id="glyph-0-14">
<path d="M 0.375 2.53125 C 1.019531 2.53125 1.539062 2.425781 1.9375 2.21875 C 2.332031 2.019531 2.644531 1.734375 2.875 1.359375 C 3.101562 0.992188 3.289062 0.5625 3.4375 0.0625 L 0.9375 -6.046875 C 0.84375 -6.285156 0.71875 -6.4375 0.5625 -6.5 C 0.414062 -6.570312 0.25 -6.613281 0.0625 -6.625 L 0 -6.625 L 0 -7.453125 L 3.953125 -7.453125 L 3.953125 -6.703125 L 3.921875 -6.703125 C 3.660156 -6.703125 3.453125 -6.664062 3.296875 -6.59375 C 3.148438 -6.519531 3.078125 -6.382812 3.078125 -6.1875 C 3.078125 -6.113281 3.09375 -6.023438 3.125 -5.921875 C 3.164062 -5.816406 3.195312 -5.726562 3.21875 -5.65625 L 4.1875 -3.109375 C 4.3125 -2.753906 4.398438 -2.46875 4.453125 -2.25 C 4.515625 -2.03125 4.550781 -1.828125 4.5625 -1.640625 C 4.582031 -1.835938 4.628906 -2.054688 4.703125 -2.296875 C 4.785156 -2.535156 4.84375 -2.6875 4.875 -2.75 L 5.796875 -5.46875 C 5.828125 -5.5625 5.859375 -5.675781 5.890625 -5.8125 C 5.921875 -5.957031 5.9375 -6.070312 5.9375 -6.15625 C 5.9375 -6.351562 5.851562 -6.492188 5.6875 -6.578125 C 5.519531 -6.660156 5.28125 -6.703125 4.96875 -6.703125 L 4.921875 -6.703125 L 4.921875 -7.453125 L 8.046875 -7.453125 L 8.046875 -6.703125 L 7.984375 -6.703125 C 7.722656 -6.703125 7.515625 -6.628906 7.359375 -6.484375 C 7.210938 -6.335938 7.070312 -6.070312 6.9375 -5.6875 L 4.828125 0 C 4.585938 0.675781 4.359375 1.226562 4.140625 1.65625 C 3.921875 2.09375 3.664062 2.429688 3.375 2.671875 C 3.09375 2.921875 2.734375 3.09375 2.296875 3.1875 C 1.859375 3.28125 1.296875 3.328125 0.609375 3.328125 L 0.375 3.328125 Z "/>
</g>
<g id="glyph-0-15">
<path d="M 0.1875 3.328125 L 0.1875 2.59375 L 0.34375 2.59375 C 0.488281 2.59375 0.632812 2.570312 0.78125 2.53125 C 0.9375 2.488281 1.066406 2.398438 1.171875 2.265625 C 1.273438 2.140625 1.328125 1.945312 1.328125 1.6875 L 1.328125 -5.734375 C 1.328125 -6.160156 1.238281 -6.425781 1.0625 -6.53125 C 0.894531 -6.644531 0.675781 -6.703125 0.40625 -6.703125 L 0.3125 -6.703125 L 0.3125 -7.453125 L 3.03125 -7.453125 L 3.28125 -6.359375 L 3.328125 -6.359375 C 3.535156 -6.722656 3.804688 -7.015625 4.140625 -7.234375 C 4.484375 -7.460938 4.921875 -7.578125 5.453125 -7.578125 C 6.378906 -7.578125 7.085938 -7.265625 7.578125 -6.640625 C 8.066406 -6.023438 8.3125 -5.039062 8.3125 -3.6875 C 8.3125 -2.351562 8.070312 -1.375 7.59375 -0.75 C 7.113281 -0.132812 6.421875 0.171875 5.515625 0.171875 C 4.984375 0.171875 4.550781 0.0703125 4.21875 -0.125 C 3.894531 -0.332031 3.632812 -0.601562 3.4375 -0.9375 L 3.328125 -0.9375 C 3.347656 -0.8125 3.367188 -0.640625 3.390625 -0.421875 C 3.410156 -0.203125 3.421875 0.0078125 3.421875 0.21875 C 3.429688 0.425781 3.4375 0.597656 3.4375 0.734375 L 3.4375 1.6875 C 3.4375 1.945312 3.488281 2.140625 3.59375 2.265625 C 3.707031 2.398438 3.84375 2.488281 4 2.53125 C 4.15625 2.570312 4.300781 2.59375 4.4375 2.59375 L 4.734375 2.59375 L 4.734375 3.328125 Z M 4.859375 -0.859375 C 5.328125 -0.859375 5.660156 -1.09375 5.859375 -1.5625 C 6.066406 -2.03125 6.171875 -2.738281 6.171875 -3.6875 C 6.171875 -4.601562 6.066406 -5.304688 5.859375 -5.796875 C 5.660156 -6.296875 5.332031 -6.546875 4.875 -6.546875 C 4.320312 -6.546875 3.941406 -6.296875 3.734375 -5.796875 C 3.535156 -5.304688 3.4375 -4.601562 3.4375 -3.6875 C 3.4375 -2.738281 3.535156 -2.03125 3.734375 -1.5625 C 3.941406 -1.09375 4.316406 -0.859375 4.859375 -0.859375 Z "/>
</g>
</g>
</defs>
<g fill="rgb(3.137255%, 31.372549%, 25.490196%)" fill-opacity="1">
<use xlink:href="#glyph-0-0" x="30" y="34.847656"/>
<use xlink:href="#glyph-0-1" x="38" y="34.847656"/>
<use xlink:href="#glyph-0-2" x="47" y="34.847656"/>
<use xlink:href="#glyph-0-3" x="54" y="34.847656"/>
<use xlink:href="#glyph-0-4" x="62" y="34.847656"/>
<use xlink:href="#glyph-0-3" x="67" y="34.847656"/>
<use xlink:href="#glyph-0-5" x="75" y="34.847656"/>
<use xlink:href="#glyph-0-6" x="83" y="34.847656"/>
<use xlink:href="#glyph-0-7" x="88" y="34.847656"/>
<use xlink:href="#glyph-0-8" x="92" y="34.847656"/>
<use xlink:href="#glyph-0-9" x="101" y="34.847656"/>
<use xlink:href="#glyph-0-10" x="110" y="34.847656"/>
<use xlink:href="#glyph-0-11" x="118" y="34.847656"/>
<use xlink:href="#glyph-0-12" x="127" y="34.847656"/>
<use xlink:href="#glyph-0-13" x="136" y="34.847656"/>
<use xlink:href="#glyph-0-14" x="142" y="34.847656"/>
<use xlink:href="#glyph-0-15" x="150" y="34.847656"/>
<use xlink:href="#glyph-0-10" x="159" y="34.847656"/>
</g>
</svg>
