<?xml version="1.0" encoding="UTF-8"?>
<svg xmlns="http://www.w3.org/2000/svg" xmlns:xlink="http://www.w3.org/1999/xlink" width="854" height="480" viewBox="0 0 854 480">
<defs>
<g>
<g id="glyph-0-0">
<path d="M 2.328125 0.09375 C 1.710938 0.09375 1.242188 -0.0234375 0.921875 -0.265625 C 0.609375 -0.515625 0.453125 -0.835938 0.453125 -1.234375 C 0.453125 -1.421875 0.507812 -1.570312 0.625 -1.6875 C 0.75 -1.8125 0.914062 -1.875 1.125 -1.875 C 1.144531 -1.613281 1.195312 -1.367188 1.28125 -1.140625 C 1.375 -0.910156 1.507812 -0.722656 1.6875 -0.578125 C 1.875 -0.441406 2.113281 -0.375 2.40625 -0.375 C 2.820312 -0.375 3.148438 -0.472656 3.390625 -0.671875 C 3.628906 -0.878906 3.75 -1.175781 3.75 -1.5625 C 3.75 -1.789062 3.703125 -1.984375 3.609375 -2.140625 C 3.523438 -2.304688 3.375 -2.457031 3.15625 -2.59375 C 2.945312 -2.726562 2.660156 -2.875 2.296875 -3.03125 C 1.710938 -3.269531 1.273438 -3.546875 0.984375 -3.859375 C 0.703125 -4.179688 0.5625 -4.601562 0.5625 -5.125 C 0.5625 -5.476562 0.648438 -5.78125 0.828125 -6.03125 C 1.003906 -6.289062 1.25 -6.488281 1.5625 -6.625 C 1.875 -6.757812 2.226562 -6.828125 2.625 -6.828125 C 3.1875 -6.828125 3.617188 -6.71875 3.921875 -6.5 C 4.234375 -6.289062 4.390625 -6.050781 4.390625 -5.78125 C 4.390625 -5.570312 4.320312 -5.414062 4.1875 -5.3125 C 4.050781 -5.207031 3.867188 -5.15625 3.640625 -5.15625 C 3.640625 -5.351562 3.601562 -5.539062 3.53125 -5.71875 C 3.46875 -5.90625 3.359375 -6.054688 3.203125 -6.171875 C 3.054688 -6.296875 2.847656 -6.359375 2.578125 -6.359375 C 2.210938 -6.359375 1.929688 -6.257812 1.734375 -6.0625 C 1.535156 -5.875 1.4375 -5.613281 1.4375 -5.28125 C 1.4375 -5.03125 1.476562 -4.816406 1.5625 -4.640625 C 1.65625 -4.472656 1.804688 -4.320312 2.015625 -4.1875 C 2.234375 -4.050781 2.523438 -3.90625 2.890625 -3.75 C 3.453125 -3.53125 3.882812 -3.269531 4.1875 -2.96875 C 4.5 -2.675781 4.65625 -2.285156 4.65625 -1.796875 C 4.65625 -1.203125 4.441406 -0.738281 4.015625 -0.40625 C 3.597656 -0.0703125 3.035156 0.09375 2.328125 0.09375 Z "/>
</g>
<g id="glyph-0-1">
<path d="M 2.265625 0.09375 C 1.785156 0.09375 1.4375 -0.015625 1.21875 -0.234375 C 1 -0.453125 0.890625 -0.832031 0.890625 -1.375 L 0.890625 -4.515625 L 0.171875 -4.515625 L 0.171875 -4.890625 C 0.285156 -4.890625 0.410156 -4.914062 0.546875 -4.96875 C 0.691406 -5.019531 0.816406 -5.097656 0.921875 -5.203125 C 1.023438 -5.316406 1.109375 -5.453125 1.171875 -5.609375 C 1.242188 -5.773438 1.300781 -5.976562 1.34375 -6.21875 L 1.78125 -6.21875 L 1.78125 -5.0625 L 3.015625 -5.0625 L 3.015625 -4.515625 L 1.78125 -4.515625 L 1.78125 -1.34375 C 1.78125 -1.019531 1.847656 -0.78125 1.984375 -0.625 C 2.117188 -0.476562 2.289062 -0.40625 2.5 -0.40625 C 2.613281 -0.40625 2.71875 -0.410156 2.8125 -0.421875 C 2.90625 -0.429688 3.003906 -0.445312 3.109375 -0.46875 L 3.109375 -0.0625 C 3.023438 -0.0195312 2.898438 0.015625 2.734375 0.046875 C 2.566406 0.078125 2.410156 0.09375 2.265625 0.09375 Z "/>
</g>
<g id="glyph-0-2">
<path d="M 0.3125 0 L 0.3125 -0.390625 L 0.34375 -0.390625 C 0.550781 -0.390625 0.726562 -0.425781 0.875 -0.5 C 1.03125 -0.582031 1.109375 -0.773438 1.109375 -1.078125 L 1.109375 -4.015625 C 1.109375 -4.296875 1.03125 -4.472656 0.875 -4.546875 C 0.726562 -4.617188 0.550781 -4.65625 0.34375 -4.65625 L 0.3125 -4.65625 L 0.3125 -5.0625 L 1.765625 -5.0625 L 1.9375 -4.125 L 1.984375 -4.125 C 2.066406 -4.3125 2.15625 -4.484375 2.25 -4.640625 C 2.34375 -4.796875 2.46875 -4.921875 2.625 -5.015625 C 2.789062 -5.109375 3.007812 -5.15625 3.28125 -5.15625 C 3.625 -5.15625 3.878906 -5.09375 4.046875 -4.96875 C 4.210938 -4.851562 4.296875 -4.6875 4.296875 -4.46875 C 4.296875 -4.269531 4.226562 -4.109375 4.09375 -3.984375 C 3.957031 -3.859375 3.734375 -3.796875 3.421875 -3.796875 C 3.421875 -4.054688 3.382812 -4.242188 3.3125 -4.359375 C 3.238281 -4.472656 3.109375 -4.53125 2.921875 -4.53125 C 2.742188 -4.53125 2.59375 -4.457031 2.46875 -4.3125 C 2.351562 -4.175781 2.257812 -4 2.1875 -3.78125 C 2.125 -3.570312 2.078125 -3.351562 2.046875 -3.125 C 2.015625 -2.894531 2 -2.691406 2 -2.515625 L 2 -1.03125 C 2 -0.75 2.078125 -0.570312 2.234375 -0.5 C 2.390625 -0.425781 2.570312 -0.390625 2.78125 -0.390625 L 3.03125 -0.390625 L 3.03125 0 Z "/>
</g>
<g id="glyph-0-3">
<path d="M 2.703125 0.09375 C 2.023438 0.09375 1.488281 -0.128906 1.09375 -0.578125 C 0.707031 -1.035156 0.515625 -1.671875 0.515625 -2.484375 C 0.515625 -3.367188 0.695312 -4.035156 1.0625 -4.484375 C 1.425781 -4.929688 1.941406 -5.15625 2.609375 -5.15625 C 3.222656 -5.15625 3.703125 -4.960938 4.046875 -4.578125 C 4.398438 -4.203125 4.578125 -3.640625 4.578125 -2.890625 L 4.578125 -2.46875 L 1.4375 -2.46875 C 1.445312 -1.78125 1.566406 -1.28125 1.796875 -0.96875 C 2.035156 -0.65625 2.382812 -0.5 2.84375 -0.5 C 3.164062 -0.5 3.441406 -0.566406 3.671875 -0.703125 C 3.898438 -0.835938 4.070312 -0.988281 4.1875 -1.15625 C 4.226562 -1.132812 4.269531 -1.097656 4.3125 -1.046875 C 4.351562 -0.992188 4.375 -0.925781 4.375 -0.84375 C 4.375 -0.71875 4.3125 -0.582031 4.1875 -0.4375 C 4.070312 -0.289062 3.890625 -0.164062 3.640625 -0.0625 C 3.398438 0.0390625 3.085938 0.09375 2.703125 0.09375 Z M 3.625 -2.96875 C 3.625 -3.476562 3.546875 -3.882812 3.390625 -4.1875 C 3.234375 -4.488281 2.96875 -4.640625 2.59375 -4.640625 C 2.25 -4.640625 1.976562 -4.492188 1.78125 -4.203125 C 1.59375 -3.921875 1.484375 -3.507812 1.453125 -2.96875 Z "/>
</g>
<g id="glyph-0-4">
<path d="M 1.984375 0.09375 C 1.515625 0.09375 1.132812 0.0078125 0.84375 -0.15625 C 0.5625 -0.332031 0.421875 -0.582031 0.421875 -0.90625 C 0.421875 -1.070312 0.453125 -1.203125 0.515625 -1.296875 C 0.585938 -1.390625 0.671875 -1.457031 0.765625 -1.5 C 0.859375 -1.539062 0.941406 -1.5625 1.015625 -1.5625 C 1.015625 -1.226562 1.085938 -0.941406 1.234375 -0.703125 C 1.390625 -0.472656 1.65625 -0.359375 2.03125 -0.359375 C 2.363281 -0.359375 2.617188 -0.4375 2.796875 -0.59375 C 2.984375 -0.757812 3.078125 -0.96875 3.078125 -1.21875 C 3.078125 -1.375 3.039062 -1.5 2.96875 -1.59375 C 2.90625 -1.695312 2.789062 -1.796875 2.625 -1.890625 C 2.457031 -1.992188 2.222656 -2.113281 1.921875 -2.25 C 1.597656 -2.394531 1.328125 -2.535156 1.109375 -2.671875 C 0.898438 -2.804688 0.742188 -2.960938 0.640625 -3.140625 C 0.535156 -3.316406 0.484375 -3.539062 0.484375 -3.8125 C 0.484375 -4.238281 0.644531 -4.566406 0.96875 -4.796875 C 1.300781 -5.023438 1.734375 -5.140625 2.265625 -5.140625 C 2.710938 -5.140625 3.050781 -5.054688 3.28125 -4.890625 C 3.519531 -4.722656 3.640625 -4.519531 3.640625 -4.28125 C 3.640625 -4.101562 3.582031 -3.960938 3.46875 -3.859375 C 3.351562 -3.753906 3.1875 -3.703125 2.96875 -3.703125 C 2.96875 -4.023438 2.898438 -4.269531 2.765625 -4.4375 C 2.628906 -4.613281 2.425781 -4.703125 2.15625 -4.703125 C 1.832031 -4.703125 1.597656 -4.628906 1.453125 -4.484375 C 1.316406 -4.347656 1.25 -4.171875 1.25 -3.953125 C 1.25 -3.710938 1.335938 -3.523438 1.515625 -3.390625 C 1.703125 -3.265625 2.003906 -3.117188 2.421875 -2.953125 C 2.753906 -2.816406 3.023438 -2.675781 3.234375 -2.53125 C 3.441406 -2.394531 3.59375 -2.234375 3.6875 -2.046875 C 3.789062 -1.867188 3.84375 -1.648438 3.84375 -1.390625 C 3.84375 -0.898438 3.671875 -0.53125 3.328125 -0.28125 C 2.992188 -0.03125 2.546875 0.09375 1.984375 0.09375 Z "/>
</g>
</g>
</defs>
<g fill="rgb(17.254902%, 17.254902%, 16.470588%)" fill-opacity="1">
<use xlink:href="#glyph-0-0" x="30" y="30.095703"/>
<use xlink:href="#glyph-0-1" x="35" y="30.095703"/>
<use xlink:href="#glyph-0-2" x="38" y="30.095703"/>
<use xlink:href="#glyph-0-3" x="42" y="30.095703"/>
<use xlink:href="#glyph-0-4" x="47" y="30.095703"/>
<use xlink:href="#glyph-0-4" x="51" y="30.095703"/>
</g>
</svg>
