<?xml version="1.0" encoding="UTF-8"?>
<svg xmlns="http://www.w3.org/2000/svg" xmlns:xlink="http://www.w3.org/1999/xlink" width="854" height="480" viewBox="0 0 854 480">
<defs>
<g>
<g id="glyph-0-0">
<path d="M 0.15625 0 L 0.15625 -0.453125 L 0.8125 -1.125 C 1 -1.3125 1.140625 -1.472656 1.234375 -1.609375 C 1.328125 -1.753906 1.394531 -1.890625 1.4375 -2.015625 C 1.476562 -2.148438 1.5 -2.296875 1.5 -2.453125 C 1.5 -2.617188 1.46875 -2.738281 1.40625 -2.8125 C 1.34375 -2.894531 1.257812 -2.9375 1.15625 -2.9375 C 1 -2.9375 0.890625 -2.875 0.828125 -2.75 C 0.765625 -2.625 0.734375 -2.429688 0.734375 -2.171875 C 0.566406 -2.171875 0.429688 -2.203125 0.328125 -2.265625 C 0.222656 -2.335938 0.171875 -2.453125 0.171875 -2.609375 C 0.171875 -2.710938 0.207031 -2.8125 0.28125 -2.90625 C 0.351562 -3 0.460938 -3.070312 0.609375 -3.125 C 0.753906 -3.1875 0.9375 -3.21875 1.15625 -3.21875 C 1.476562 -3.21875 1.726562 -3.148438 1.90625 -3.015625 C 2.082031 -2.878906 2.171875 -2.695312 2.171875 -2.46875 C 2.171875 -2.375 2.148438 -2.273438 2.109375 -2.171875 C 2.066406 -2.078125 2.003906 -1.972656 1.921875 -1.859375 C 1.835938 -1.742188 1.722656 -1.609375 1.578125 -1.453125 C 1.429688 -1.296875 1.242188 -1.113281 1.015625 -0.90625 L 0.578125 -0.484375 L 1.609375 -0.484375 C 1.796875 -0.484375 1.921875 -0.585938 1.984375 -0.796875 L 2.015625 -0.9375 L 2.28125 -0.9375 L 2.25 0 Z "/>
</g>
</g>
</defs>
<g fill="rgb(100%, 100%, 100%)" fill-opacity="1">
<use xlink:href="#glyph-0-0" x="30" y="24.750977"/>
</g>
</svg>
