<?xml version="1.0" encoding="UTF-8"?>
<svg xmlns="http://www.w3.org/2000/svg" xmlns:xlink="http://www.w3.org/1999/xlink" width="854" height="480" viewBox="0 0 854 480">
<defs>
<g>
<g id="glyph-0-0">
<path d="M 0.4375 0 L 0.4375 -0.234375 L 0.796875 -0.234375 C 0.867188 -0.234375 0.921875 -0.253906 0.953125 -0.296875 C 0.992188 -0.335938 1.015625 -0.414062 1.015625 -0.53125 L 1.015625 -2.75 C 0.898438 -2.613281 0.796875 -2.5 0.703125 -2.40625 C 0.617188 -2.320312 0.53125 -2.28125 0.4375 -2.28125 C 0.375 -2.28125 0.316406 -2.3125 0.265625 -2.375 C 0.210938 -2.4375 0.1875 -2.515625 0.1875 -2.609375 C 0.269531 -2.640625 0.367188 -2.675781 0.484375 -2.71875 C 0.597656 -2.769531 0.726562 -2.847656 0.875 -2.953125 L 1.1875 -3.1875 L 1.671875 -3.1875 L 1.671875 -0.53125 C 1.671875 -0.4375 1.6875 -0.363281 1.71875 -0.3125 C 1.75 -0.257812 1.8125 -0.234375 1.90625 -0.234375 L 2.265625 -0.234375 L 2.265625 0 Z "/>
</g>
</g>
</defs>
<g fill="rgb(100%, 100%, 100%)" fill-opacity="1">
<use xlink:href="#glyph-0-0" x="30" y="24.750977"/>
</g>
</svg>
