<?xml version="1.0" encoding="UTF-8"?>
<svg xmlns="http://www.w3.org/2000/svg" xmlns:xlink="http://www.w3.org/1999/xlink" width="854" height="480" viewBox="0 0 854 480">
<defs>
<g>
<g id="glyph-0-0">
<path d="M 0 0 L 0 -0.390625 L 0.171875 -0.390625 C 0.359375 -0.390625 0.5 -0.4375 0.59375 -0.53125 C 0.6875 -0.625 0.785156 -0.820312 0.890625 -1.125 L 2.984375 -6.734375 L 3.734375 -6.734375 L 5.859375 -0.890625 C 5.929688 -0.703125 6.015625 -0.570312 6.109375 -0.5 C 6.203125 -0.425781 6.34375 -0.390625 6.53125 -0.390625 L 6.65625 -0.390625 L 6.65625 0 L 4.0625 0 L 4.0625 -0.390625 L 4.28125 -0.390625 C 4.65625 -0.390625 4.84375 -0.539062 4.84375 -0.84375 C 4.84375 -0.894531 4.832031 -0.945312 4.8125 -1 C 4.800781 -1.0625 4.785156 -1.128906 4.765625 -1.203125 L 4.390625 -2.25 L 1.90625 -2.25 L 1.546875 -1.265625 C 1.492188 -1.109375 1.46875 -0.972656 1.46875 -0.859375 C 1.46875 -0.546875 1.671875 -0.390625 2.078125 -0.390625 L 2.296875 -0.390625 L 2.296875 0 Z M 2.078125 -2.734375 L 4.21875 -2.734375 L 3.640625 -4.375 C 3.535156 -4.65625 3.441406 -4.914062 3.359375 -5.15625 C 3.273438 -5.40625 3.207031 -5.644531 3.15625 -5.875 C 3.113281 -5.644531 3.054688 -5.425781 2.984375 -5.21875 C 2.921875 -5.007812 2.835938 -4.757812 2.734375 -4.46875 Z "/>
</g>
<g id="glyph-0-1">
<path d="M 2.671875 0.09375 C 2.253906 0.09375 1.882812 0.00390625 1.5625 -0.171875 C 1.238281 -0.347656 0.984375 -0.625 0.796875 -1 C 0.609375 -1.382812 0.515625 -1.882812 0.515625 -2.5 C 0.515625 -3.175781 0.609375 -3.707031 0.796875 -4.09375 C 0.984375 -4.476562 1.234375 -4.75 1.546875 -4.90625 C 1.867188 -5.070312 2.226562 -5.15625 2.625 -5.15625 C 2.882812 -5.15625 3.140625 -5.117188 3.390625 -5.046875 C 3.648438 -4.972656 3.859375 -4.863281 4.015625 -4.71875 C 4.179688 -4.582031 4.265625 -4.40625 4.265625 -4.1875 C 4.265625 -3.976562 4.191406 -3.828125 4.046875 -3.734375 C 3.910156 -3.640625 3.703125 -3.59375 3.421875 -3.59375 C 3.421875 -3.894531 3.363281 -4.148438 3.25 -4.359375 C 3.144531 -4.578125 2.9375 -4.6875 2.625 -4.6875 C 2.382812 -4.6875 2.175781 -4.617188 2 -4.484375 C 1.820312 -4.359375 1.679688 -4.140625 1.578125 -3.828125 C 1.484375 -3.515625 1.4375 -3.078125 1.4375 -2.515625 C 1.4375 -1.847656 1.546875 -1.347656 1.765625 -1.015625 C 1.992188 -0.679688 2.359375 -0.515625 2.859375 -0.515625 C 3.148438 -0.515625 3.40625 -0.578125 3.625 -0.703125 C 3.84375 -0.828125 4.003906 -0.988281 4.109375 -1.1875 C 4.222656 -1.09375 4.28125 -0.96875 4.28125 -0.8125 C 4.28125 -0.664062 4.21875 -0.519531 4.09375 -0.375 C 3.976562 -0.238281 3.800781 -0.125 3.5625 -0.03125 C 3.320312 0.0507812 3.023438 0.09375 2.671875 0.09375 Z "/>
</g>
<g id="glyph-0-2">
<path d="M 0.265625 0 L 0.265625 -0.390625 L 0.34375 -0.390625 C 0.550781 -0.390625 0.726562 -0.425781 0.875 -0.5 C 1.03125 -0.582031 1.109375 -0.773438 1.109375 -1.078125 L 1.109375 -4.015625 C 1.109375 -4.296875 1.035156 -4.472656 0.890625 -4.546875 C 0.742188 -4.617188 0.566406 -4.65625 0.359375 -4.65625 L 0.3125 -4.65625 L 0.3125 -5.0625 L 1.84375 -5.0625 L 1.96875 -4.296875 L 2.015625 -4.296875 C 2.203125 -4.648438 2.414062 -4.878906 2.65625 -4.984375 C 2.90625 -5.097656 3.179688 -5.15625 3.484375 -5.15625 C 3.984375 -5.15625 4.367188 -5.007812 4.640625 -4.71875 C 4.921875 -4.425781 5.0625 -3.953125 5.0625 -3.296875 L 5.0625 -1.078125 C 5.0625 -0.773438 5.125 -0.582031 5.25 -0.5 C 5.382812 -0.425781 5.5625 -0.390625 5.78125 -0.390625 L 5.828125 -0.390625 L 5.828125 0 L 4.1875 0 L 4.1875 -3.25 C 4.1875 -3.664062 4.109375 -3.984375 3.953125 -4.203125 C 3.796875 -4.429688 3.523438 -4.546875 3.140625 -4.546875 C 2.859375 -4.546875 2.632812 -4.472656 2.46875 -4.328125 C 2.300781 -4.191406 2.179688 -4.003906 2.109375 -3.765625 C 2.035156 -3.535156 2 -3.285156 2 -3.015625 L 2 -1.03125 C 2 -0.75 2.070312 -0.570312 2.21875 -0.5 C 2.363281 -0.425781 2.539062 -0.390625 2.75 -0.390625 L 2.796875 -0.390625 L 2.796875 0 Z "/>
</g>
<g id="glyph-0-3">
<path d="M 2.703125 0.09375 C 2.023438 0.09375 1.488281 -0.128906 1.09375 -0.578125 C 0.707031 -1.035156 0.515625 -1.671875 0.515625 -2.484375 C 0.515625 -3.367188 0.695312 -4.035156 1.0625 -4.484375 C 1.425781 -4.929688 1.941406 -5.15625 2.609375 -5.15625 C 3.222656 -5.15625 3.703125 -4.960938 4.046875 -4.578125 C 4.398438 -4.203125 4.578125 -3.640625 4.578125 -2.890625 L 4.578125 -2.46875 L 1.4375 -2.46875 C 1.445312 -1.78125 1.566406 -1.28125 1.796875 -0.96875 C 2.035156 -0.65625 2.382812 -0.5 2.84375 -0.5 C 3.164062 -0.5 3.441406 -0.566406 3.671875 -0.703125 C 3.898438 -0.835938 4.070312 -0.988281 4.1875 -1.15625 C 4.226562 -1.132812 4.269531 -1.097656 4.3125 -1.046875 C 4.351562 -0.992188 4.375 -0.925781 4.375 -0.84375 C 4.375 -0.71875 4.3125 -0.582031 4.1875 -0.4375 C 4.070312 -0.289062 3.890625 -0.164062 3.640625 -0.0625 C 3.398438 0.0390625 3.085938 0.09375 2.703125 0.09375 Z M 3.625 -2.96875 C 3.625 -3.476562 3.546875 -3.882812 3.390625 -4.1875 C 3.234375 -4.488281 2.96875 -4.640625 2.59375 -4.640625 C 2.25 -4.640625 1.976562 -4.492188 1.78125 -4.203125 C 1.59375 -3.921875 1.484375 -3.507812 1.453125 -2.96875 Z "/>
</g>
</g>
</defs>
<g fill="rgb(17.254902%, 17.254902%, 16.470588%)" fill-opacity="1">
<use xlink:href="#glyph-0-0" x="30" y="30.095703"/>
<use xlink:href="#glyph-0-1" x="36" y="30.095703"/>
<use xlink:href="#glyph-0-2" x="41" y="30.095703"/>
<use xlink:href="#glyph-0-3" x="47" y="30.095703"/>
</g>
</svg>
