<?xml version="1.0" encoding="UTF-8"?>
<svg xmlns="http://www.w3.org/2000/svg" xmlns:xlink="http://www.w3.org/1999/xlink" width="854" height="480" viewBox="0 0 854 480">
<defs>
<g>
<g id="glyph-0-0">
<path d="M 0.359375 0 L 0.359375 -0.390625 L 0.484375 -0.390625 C 0.691406 -0.390625 0.867188 -0.425781 1.015625 -0.5 C 1.171875 -0.570312 1.25 -0.75 1.25 -1.03125 L 1.25 -5.703125 C 1.25 -5.972656 1.171875 -6.144531 1.015625 -6.21875 C 0.867188 -6.300781 0.691406 -6.34375 0.484375 -6.34375 L 0.359375 -6.34375 L 0.359375 -6.734375 L 2.890625 -6.734375 C 4.515625 -6.734375 5.328125 -6.128906 5.328125 -4.921875 C 5.328125 -4.585938 5.253906 -4.304688 5.109375 -4.078125 C 4.972656 -3.847656 4.800781 -3.660156 4.59375 -3.515625 C 4.382812 -3.378906 4.164062 -3.273438 3.9375 -3.203125 L 5.234375 -1.15625 C 5.390625 -0.90625 5.539062 -0.710938 5.6875 -0.578125 C 5.84375 -0.453125 6.019531 -0.390625 6.21875 -0.390625 L 6.25 -0.390625 L 6.25 0 L 6.109375 0 C 5.722656 0 5.421875 -0.0195312 5.203125 -0.0625 C 4.984375 -0.101562 4.804688 -0.179688 4.671875 -0.296875 C 4.546875 -0.421875 4.410156 -0.601562 4.265625 -0.84375 L 2.984375 -2.96875 L 2.203125 -2.96875 L 2.203125 -1.03125 C 2.203125 -0.75 2.28125 -0.570312 2.4375 -0.5 C 2.59375 -0.425781 2.773438 -0.390625 2.984375 -0.390625 L 3.109375 -0.390625 L 3.109375 0 Z M 2.875 -3.421875 C 3.425781 -3.421875 3.800781 -3.539062 4 -3.78125 C 4.207031 -4.03125 4.3125 -4.398438 4.3125 -4.890625 C 4.3125 -5.390625 4.203125 -5.742188 3.984375 -5.953125 C 3.765625 -6.171875 3.382812 -6.28125 2.84375 -6.28125 L 2.203125 -6.28125 L 2.203125 -3.421875 Z "/>
</g>
<g id="glyph-0-1">
<path d="M 2.703125 0.09375 C 2.023438 0.09375 1.488281 -0.128906 1.09375 -0.578125 C 0.707031 -1.035156 0.515625 -1.671875 0.515625 -2.484375 C 0.515625 -3.367188 0.695312 -4.035156 1.0625 -4.484375 C 1.425781 -4.929688 1.941406 -5.15625 2.609375 -5.15625 C 3.222656 -5.15625 3.703125 -4.960938 4.046875 -4.578125 C 4.398438 -4.203125 4.578125 -3.640625 4.578125 -2.890625 L 4.578125 -2.46875 L 1.4375 -2.46875 C 1.445312 -1.78125 1.566406 -1.28125 1.796875 -0.96875 C 2.035156 -0.65625 2.382812 -0.5 2.84375 -0.5 C 3.164062 -0.5 3.441406 -0.566406 3.671875 -0.703125 C 3.898438 -0.835938 4.070312 -0.988281 4.1875 -1.15625 C 4.226562 -1.132812 4.269531 -1.097656 4.3125 -1.046875 C 4.351562 -0.992188 4.375 -0.925781 4.375 -0.84375 C 4.375 -0.71875 4.3125 -0.582031 4.1875 -0.4375 C 4.070312 -0.289062 3.890625 -0.164062 3.640625 -0.0625 C 3.398438 0.0390625 3.085938 0.09375 2.703125 0.09375 Z M 3.625 -2.96875 C 3.625 -3.476562 3.546875 -3.882812 3.390625 -4.1875 C 3.234375 -4.488281 2.96875 -4.640625 2.59375 -4.640625 C 2.25 -4.640625 1.976562 -4.492188 1.78125 -4.203125 C 1.59375 -3.921875 1.484375 -3.507812 1.453125 -2.96875 Z "/>
</g>
<g id="glyph-0-2">
<path d="M 2.1875 2.265625 C 1.53125 2.265625 1.035156 2.140625 0.703125 1.890625 C 0.378906 1.648438 0.21875 1.316406 0.21875 0.890625 C 0.21875 0.515625 0.335938 0.234375 0.578125 0.046875 C 0.816406 -0.140625 1.085938 -0.265625 1.390625 -0.328125 C 1.265625 -0.378906 1.144531 -0.46875 1.03125 -0.59375 C 0.925781 -0.726562 0.875 -0.894531 0.875 -1.09375 C 0.875 -1.28125 0.921875 -1.441406 1.015625 -1.578125 C 1.117188 -1.722656 1.273438 -1.859375 1.484375 -1.984375 C 1.210938 -2.097656 1.003906 -2.285156 0.859375 -2.546875 C 0.710938 -2.804688 0.640625 -3.09375 0.640625 -3.40625 C 0.640625 -3.945312 0.785156 -4.375 1.078125 -4.6875 C 1.378906 -5 1.828125 -5.15625 2.421875 -5.15625 C 2.640625 -5.15625 2.847656 -5.125 3.046875 -5.0625 C 3.253906 -5 3.398438 -4.925781 3.484375 -4.84375 C 3.578125 -4.945312 3.703125 -5.054688 3.859375 -5.171875 C 4.015625 -5.285156 4.195312 -5.34375 4.40625 -5.34375 C 4.59375 -5.34375 4.734375 -5.296875 4.828125 -5.203125 C 4.921875 -5.109375 4.96875 -4.992188 4.96875 -4.859375 C 4.96875 -4.722656 4.925781 -4.609375 4.84375 -4.515625 C 4.769531 -4.421875 4.644531 -4.375 4.46875 -4.375 C 4.46875 -4.4375 4.445312 -4.503906 4.40625 -4.578125 C 4.363281 -4.648438 4.28125 -4.6875 4.15625 -4.6875 C 4.007812 -4.6875 3.875 -4.648438 3.75 -4.578125 C 3.851562 -4.441406 3.9375 -4.285156 4 -4.109375 C 4.070312 -3.929688 4.109375 -3.707031 4.109375 -3.4375 C 4.109375 -2.96875 3.96875 -2.578125 3.6875 -2.265625 C 3.414062 -1.960938 2.992188 -1.8125 2.421875 -1.8125 C 2.335938 -1.8125 2.25 -1.816406 2.15625 -1.828125 C 2.0625 -1.835938 1.984375 -1.847656 1.921875 -1.859375 C 1.796875 -1.796875 1.6875 -1.71875 1.59375 -1.625 C 1.507812 -1.53125 1.46875 -1.410156 1.46875 -1.265625 C 1.46875 -1.148438 1.503906 -1.0625 1.578125 -1 C 1.648438 -0.9375 1.8125 -0.90625 2.0625 -0.90625 L 3.125 -0.90625 C 3.6875 -0.90625 4.085938 -0.769531 4.328125 -0.5 C 4.566406 -0.238281 4.6875 0.09375 4.6875 0.5 C 4.6875 1.039062 4.484375 1.46875 4.078125 1.78125 C 3.671875 2.101562 3.039062 2.265625 2.1875 2.265625 Z M 2.390625 -2.265625 C 2.691406 -2.265625 2.90625 -2.359375 3.03125 -2.546875 C 3.164062 -2.734375 3.234375 -3.03125 3.234375 -3.4375 C 3.234375 -3.875 3.164062 -4.191406 3.03125 -4.390625 C 2.90625 -4.585938 2.6875 -4.6875 2.375 -4.6875 C 2.070312 -4.6875 1.851562 -4.582031 1.71875 -4.375 C 1.59375 -4.164062 1.53125 -3.851562 1.53125 -3.4375 C 1.53125 -3.03125 1.597656 -2.734375 1.734375 -2.546875 C 1.867188 -2.359375 2.085938 -2.265625 2.390625 -2.265625 Z M 2.203125 1.796875 C 2.648438 1.796875 2.992188 1.75 3.234375 1.65625 C 3.484375 1.5625 3.65625 1.425781 3.75 1.25 C 3.851562 1.070312 3.90625 0.875 3.90625 0.65625 C 3.90625 0.363281 3.820312 0.171875 3.65625 0.078125 C 3.5 -0.015625 3.257812 -0.0625 2.9375 -0.0625 L 2.015625 -0.0625 C 1.835938 -0.0625 1.671875 -0.0390625 1.515625 0 C 1.359375 0.0507812 1.226562 0.140625 1.125 0.265625 C 1.03125 0.390625 0.984375 0.578125 0.984375 0.828125 C 0.984375 1.015625 1.015625 1.179688 1.078125 1.328125 C 1.148438 1.472656 1.273438 1.585938 1.453125 1.671875 C 1.628906 1.753906 1.878906 1.796875 2.203125 1.796875 Z "/>
</g>
<g id="glyph-0-3">
<path d="M 2.578125 0.09375 C 2.078125 0.09375 1.691406 -0.0507812 1.421875 -0.34375 C 1.148438 -0.632812 1.015625 -1.101562 1.015625 -1.75 L 1.015625 -4.015625 C 1.015625 -4.296875 0.9375 -4.472656 0.78125 -4.546875 C 0.632812 -4.617188 0.457031 -4.65625 0.25 -4.65625 L 0.21875 -4.65625 L 0.21875 -5.0625 L 1.90625 -5.0625 L 1.90625 -1.796875 C 1.90625 -1.390625 1.972656 -1.070312 2.109375 -0.84375 C 2.253906 -0.625 2.515625 -0.515625 2.890625 -0.515625 C 3.304688 -0.515625 3.609375 -0.648438 3.796875 -0.921875 C 3.992188 -1.203125 4.09375 -1.570312 4.09375 -2.03125 L 4.09375 -3.984375 C 4.09375 -4.273438 4.015625 -4.457031 3.859375 -4.53125 C 3.710938 -4.613281 3.53125 -4.65625 3.3125 -4.65625 L 3.28125 -4.65625 L 3.28125 -5.0625 L 4.96875 -5.0625 L 4.96875 -1.03125 C 4.96875 -0.75 5.046875 -0.570312 5.203125 -0.5 C 5.359375 -0.425781 5.539062 -0.390625 5.75 -0.390625 L 5.78125 -0.390625 L 5.78125 0 L 4.28125 0 L 4.15625 -0.765625 L 4.109375 -0.765625 C 3.910156 -0.410156 3.679688 -0.175781 3.421875 -0.0625 C 3.160156 0.0390625 2.878906 0.09375 2.578125 0.09375 Z "/>
</g>
<g id="glyph-0-4">
<path d="M 0.125 0 L 0.125 -0.390625 L 0.25 -0.390625 C 0.457031 -0.390625 0.632812 -0.425781 0.78125 -0.5 C 0.9375 -0.582031 1.015625 -0.773438 1.015625 -1.078125 L 1.015625 -6.140625 C 1.015625 -6.410156 0.9375 -6.582031 0.78125 -6.65625 C 0.632812 -6.738281 0.457031 -6.78125 0.25 -6.78125 L 0.125 -6.78125 L 0.125 -7.171875 L 1.90625 -7.171875 L 1.90625 -1.078125 C 1.90625 -0.773438 1.976562 -0.582031 2.125 -0.5 C 2.28125 -0.425781 2.46875 -0.390625 2.6875 -0.390625 L 2.796875 -0.390625 L 2.796875 0 Z "/>
</g>
<g id="glyph-0-5">
<path d="M 1.9375 0.09375 C 1.507812 0.09375 1.15625 -0.0234375 0.875 -0.265625 C 0.601562 -0.515625 0.46875 -0.898438 0.46875 -1.421875 C 0.46875 -1.921875 0.644531 -2.289062 1 -2.53125 C 1.351562 -2.769531 1.894531 -2.898438 2.625 -2.921875 L 3.40625 -2.953125 L 3.40625 -3.515625 C 3.40625 -3.742188 3.382812 -3.941406 3.34375 -4.109375 C 3.3125 -4.285156 3.234375 -4.425781 3.109375 -4.53125 C 2.984375 -4.632812 2.789062 -4.6875 2.53125 -4.6875 C 2.289062 -4.6875 2.109375 -4.640625 1.984375 -4.546875 C 1.859375 -4.460938 1.773438 -4.34375 1.734375 -4.1875 C 1.691406 -4.03125 1.671875 -3.851562 1.671875 -3.65625 C 1.410156 -3.65625 1.210938 -3.695312 1.078125 -3.78125 C 0.941406 -3.875 0.875 -4.03125 0.875 -4.25 C 0.875 -4.46875 0.945312 -4.640625 1.09375 -4.765625 C 1.25 -4.898438 1.457031 -5 1.71875 -5.0625 C 1.976562 -5.125 2.257812 -5.15625 2.5625 -5.15625 C 3.144531 -5.15625 3.578125 -5.03125 3.859375 -4.78125 C 4.148438 -4.539062 4.296875 -4.117188 4.296875 -3.515625 L 4.296875 -1.078125 C 4.296875 -0.804688 4.335938 -0.625 4.421875 -0.53125 C 4.515625 -0.4375 4.664062 -0.390625 4.875 -0.390625 L 4.90625 -0.390625 L 4.90625 0 L 3.640625 0 L 3.484375 -0.8125 L 3.40625 -0.8125 C 3.269531 -0.632812 3.140625 -0.476562 3.015625 -0.34375 C 2.890625 -0.207031 2.742188 -0.0976562 2.578125 -0.015625 C 2.410156 0.0546875 2.195312 0.09375 1.9375 0.09375 Z M 2.15625 -0.484375 C 2.539062 -0.484375 2.84375 -0.601562 3.0625 -0.84375 C 3.289062 -1.082031 3.40625 -1.398438 3.40625 -1.796875 L 3.40625 -2.5625 L 2.796875 -2.53125 C 2.265625 -2.507812 1.894531 -2.398438 1.6875 -2.203125 C 1.488281 -2.015625 1.390625 -1.738281 1.390625 -1.375 C 1.390625 -0.78125 1.644531 -0.484375 2.15625 -0.484375 Z "/>
</g>
<g id="glyph-0-6">
<path d="M 0.3125 0 L 0.3125 -0.390625 L 0.34375 -0.390625 C 0.550781 -0.390625 0.726562 -0.425781 0.875 -0.5 C 1.03125 -0.582031 1.109375 -0.773438 1.109375 -1.078125 L 1.109375 -4.015625 C 1.109375 -4.296875 1.03125 -4.472656 0.875 -4.546875 C 0.726562 -4.617188 0.550781 -4.65625 0.34375 -4.65625 L 0.3125 -4.65625 L 0.3125 -5.0625 L 1.765625 -5.0625 L 1.9375 -4.125 L 1.984375 -4.125 C 2.066406 -4.3125 2.15625 -4.484375 2.25 -4.640625 C 2.34375 -4.796875 2.46875 -4.921875 2.625 -5.015625 C 2.789062 -5.109375 3.007812 -5.15625 3.28125 -5.15625 C 3.625 -5.15625 3.878906 -5.09375 4.046875 -4.96875 C 4.210938 -4.851562 4.296875 -4.6875 4.296875 -4.46875 C 4.296875 -4.269531 4.226562 -4.109375 4.09375 -3.984375 C 3.957031 -3.859375 3.734375 -3.796875 3.421875 -3.796875 C 3.421875 -4.054688 3.382812 -4.242188 3.3125 -4.359375 C 3.238281 -4.472656 3.109375 -4.53125 2.921875 -4.53125 C 2.742188 -4.53125 2.59375 -4.457031 2.46875 -4.3125 C 2.351562 -4.175781 2.257812 -4 2.1875 -3.78125 C 2.125 -3.570312 2.078125 -3.351562 2.046875 -3.125 C 2.015625 -2.894531 2 -2.691406 2 -2.515625 L 2 -1.03125 C 2 -0.75 2.078125 -0.570312 2.234375 -0.5 C 2.390625 -0.425781 2.570312 -0.390625 2.78125 -0.390625 L 3.03125 -0.390625 L 3.03125 0 Z "/>
</g>
<g id="glyph-0-7">
</g>
<g id="glyph-0-8">
<path d="M 0.359375 0 L 0.359375 -0.390625 L 0.484375 -0.390625 C 0.691406 -0.390625 0.867188 -0.425781 1.015625 -0.5 C 1.171875 -0.582031 1.25 -0.773438 1.25 -1.078125 L 1.25 -5.703125 C 1.25 -5.972656 1.171875 -6.144531 1.015625 -6.21875 C 0.867188 -6.300781 0.691406 -6.34375 0.484375 -6.34375 L 0.359375 -6.34375 L 0.359375 -6.734375 L 3.015625 -6.734375 C 3.804688 -6.734375 4.390625 -6.554688 4.765625 -6.203125 C 5.140625 -5.859375 5.328125 -5.378906 5.328125 -4.765625 C 5.328125 -4.390625 5.242188 -4.039062 5.078125 -3.71875 C 4.921875 -3.394531 4.65625 -3.128906 4.28125 -2.921875 C 3.914062 -2.722656 3.421875 -2.625 2.796875 -2.625 L 2.203125 -2.625 L 2.203125 -1.03125 C 2.203125 -0.75 2.28125 -0.570312 2.4375 -0.5 C 2.59375 -0.425781 2.773438 -0.390625 2.984375 -0.390625 L 3.296875 -0.390625 L 3.296875 0 Z M 2.703125 -3.0625 C 3.273438 -3.0625 3.6875 -3.1875 3.9375 -3.4375 C 4.1875 -3.695312 4.3125 -4.128906 4.3125 -4.734375 C 4.3125 -5.253906 4.203125 -5.640625 3.984375 -5.890625 C 3.765625 -6.148438 3.382812 -6.28125 2.84375 -6.28125 L 2.203125 -6.28125 L 2.203125 -3.0625 Z "/>
</g>
<g id="glyph-0-9">
<path d="M 1.515625 -6 C 1.367188 -6 1.242188 -6.039062 1.140625 -6.125 C 1.035156 -6.21875 0.984375 -6.375 0.984375 -6.59375 C 0.984375 -6.8125 1.035156 -6.960938 1.140625 -7.046875 C 1.242188 -7.128906 1.367188 -7.171875 1.515625 -7.171875 C 1.660156 -7.171875 1.785156 -7.128906 1.890625 -7.046875 C 2.003906 -6.960938 2.0625 -6.8125 2.0625 -6.59375 C 2.0625 -6.375 2.003906 -6.21875 1.890625 -6.125 C 1.785156 -6.039062 1.660156 -6 1.515625 -6 Z M 0.21875 0 L 0.21875 -0.390625 L 0.34375 -0.390625 C 0.550781 -0.390625 0.726562 -0.425781 0.875 -0.5 C 1.03125 -0.570312 1.109375 -0.75 1.109375 -1.03125 L 1.109375 -4.015625 C 1.109375 -4.296875 1.03125 -4.472656 0.875 -4.546875 C 0.726562 -4.617188 0.550781 -4.65625 0.34375 -4.65625 L 0.3125 -4.65625 L 0.3125 -5.0625 L 2 -5.0625 L 2 -1.078125 C 2 -0.773438 2.070312 -0.582031 2.21875 -0.5 C 2.375 -0.425781 2.5625 -0.390625 2.78125 -0.390625 L 2.890625 -0.390625 L 2.890625 0 Z "/>
</g>
<g id="glyph-0-10">
<path d="M 2.703125 0.09375 C 2.023438 0.09375 1.488281 -0.117188 1.09375 -0.546875 C 0.707031 -0.984375 0.515625 -1.644531 0.515625 -2.53125 C 0.515625 -3.414062 0.703125 -4.070312 1.078125 -4.5 C 1.453125 -4.9375 2.003906 -5.15625 2.734375 -5.15625 C 3.410156 -5.15625 3.941406 -4.9375 4.328125 -4.5 C 4.722656 -4.070312 4.921875 -3.414062 4.921875 -2.53125 C 4.921875 -1.644531 4.734375 -0.984375 4.359375 -0.546875 C 3.984375 -0.117188 3.429688 0.09375 2.703125 0.09375 Z M 2.734375 -0.390625 C 3.203125 -0.390625 3.53125 -0.570312 3.71875 -0.9375 C 3.914062 -1.300781 4.015625 -1.832031 4.015625 -2.53125 C 4.015625 -3.238281 3.914062 -3.769531 3.71875 -4.125 C 3.519531 -4.476562 3.1875 -4.65625 2.71875 -4.65625 C 2.25 -4.65625 1.914062 -4.476562 1.71875 -4.125 C 1.53125 -3.769531 1.4375 -3.238281 1.4375 -2.53125 C 1.4375 -1.832031 1.53125 -1.300781 1.71875 -0.9375 C 1.914062 -0.570312 2.253906 -0.390625 2.734375 -0.390625 Z "/>
</g>
<g id="glyph-0-11">
<path d="M 2.4375 0.09375 C 1.820312 0.09375 1.347656 -0.113281 1.015625 -0.53125 C 0.679688 -0.945312 0.515625 -1.609375 0.515625 -2.515625 C 0.515625 -3.429688 0.679688 -4.097656 1.015625 -4.515625 C 1.347656 -4.941406 1.820312 -5.15625 2.4375 -5.15625 C 2.800781 -5.15625 3.097656 -5.078125 3.328125 -4.921875 C 3.566406 -4.765625 3.753906 -4.566406 3.890625 -4.328125 L 3.9375 -4.328125 C 3.925781 -4.484375 3.914062 -4.65625 3.90625 -4.84375 C 3.894531 -5.039062 3.890625 -5.210938 3.890625 -5.359375 L 3.890625 -6.140625 C 3.890625 -6.410156 3.8125 -6.582031 3.65625 -6.65625 C 3.5 -6.738281 3.316406 -6.78125 3.109375 -6.78125 L 3.03125 -6.78125 L 3.03125 -7.171875 L 4.78125 -7.171875 L 4.78125 -1.03125 C 4.78125 -0.757812 4.851562 -0.582031 5 -0.5 C 5.15625 -0.425781 5.335938 -0.390625 5.546875 -0.390625 L 5.625 -0.390625 L 5.625 0 L 4.03125 0 L 3.921875 -0.84375 L 3.890625 -0.84375 C 3.753906 -0.5625 3.570312 -0.332031 3.34375 -0.15625 C 3.113281 0.0078125 2.8125 0.09375 2.4375 0.09375 Z M 2.609375 -0.515625 C 3.097656 -0.515625 3.429688 -0.675781 3.609375 -1 C 3.796875 -1.332031 3.890625 -1.835938 3.890625 -2.515625 C 3.890625 -3.171875 3.796875 -3.671875 3.609375 -4.015625 C 3.429688 -4.367188 3.09375 -4.546875 2.59375 -4.546875 C 2.175781 -4.546875 1.878906 -4.367188 1.703125 -4.015625 C 1.523438 -3.671875 1.4375 -3.171875 1.4375 -2.515625 C 1.4375 -1.847656 1.523438 -1.347656 1.703125 -1.015625 C 1.878906 -0.679688 2.179688 -0.515625 2.609375 -0.515625 Z "/>
</g>
<g id="glyph-0-12">
<path d="M 1.984375 0.09375 C 1.515625 0.09375 1.132812 0.0078125 0.84375 -0.15625 C 0.5625 -0.332031 0.421875 -0.582031 0.421875 -0.90625 C 0.421875 -1.070312 0.453125 -1.203125 0.515625 -1.296875 C 0.585938 -1.390625 0.671875 -1.457031 0.765625 -1.5 C 0.859375 -1.539062 0.941406 -1.5625 1.015625 -1.5625 C 1.015625 -1.226562 1.085938 -0.941406 1.234375 -0.703125 C 1.390625 -0.472656 1.65625 -0.359375 2.03125 -0.359375 C 2.363281 -0.359375 2.617188 -0.4375 2.796875 -0.59375 C 2.984375 -0.757812 3.078125 -0.96875 3.078125 -1.21875 C 3.078125 -1.375 3.039062 -1.5 2.96875 -1.59375 C 2.90625 -1.695312 2.789062 -1.796875 2.625 -1.890625 C 2.457031 -1.992188 2.222656 -2.113281 1.921875 -2.25 C 1.597656 -2.394531 1.328125 -2.535156 1.109375 -2.671875 C 0.898438 -2.804688 0.742188 -2.960938 0.640625 -3.140625 C 0.535156 -3.316406 0.484375 -3.539062 0.484375 -3.8125 C 0.484375 -4.238281 0.644531 -4.566406 0.96875 -4.796875 C 1.300781 -5.023438 1.734375 -5.140625 2.265625 -5.140625 C 2.710938 -5.140625 3.050781 -5.054688 3.28125 -4.890625 C 3.519531 -4.722656 3.640625 -4.519531 3.640625 -4.28125 C 3.640625 -4.101562 3.582031 -3.960938 3.46875 -3.859375 C 3.351562 -3.753906 3.1875 -3.703125 2.96875 -3.703125 C 2.96875 -4.023438 2.898438 -4.269531 2.765625 -4.4375 C 2.628906 -4.613281 2.425781 -4.703125 2.15625 -4.703125 C 1.832031 -4.703125 1.597656 -4.628906 1.453125 -4.484375 C 1.316406 -4.347656 1.25 -4.171875 1.25 -3.953125 C 1.25 -3.710938 1.335938 -3.523438 1.515625 -3.390625 C 1.703125 -3.265625 2.003906 -3.117188 2.421875 -2.953125 C 2.753906 -2.816406 3.023438 -2.675781 3.234375 -2.53125 C 3.441406 -2.394531 3.59375 -2.234375 3.6875 -2.046875 C 3.789062 -1.867188 3.84375 -1.648438 3.84375 -1.390625 C 3.84375 -0.898438 3.671875 -0.53125 3.328125 -0.28125 C 2.992188 -0.03125 2.546875 0.09375 1.984375 0.09375 Z "/>
</g>
</g>
</defs>
<g fill="rgb(17.254902%, 17.254902%, 16.470588%)" fill-opacity="1">
<use xlink:href="#glyph-0-0" x="30" y="30.095703"/>
<use xlink:href="#glyph-0-1" x="36" y="30.095703"/>
<use xlink:href="#glyph-0-2" x="41" y="30.095703"/>
<use xlink:href="#glyph-0-3" x="46" y="30.095703"/>
<use xlink:href="#glyph-0-4" x="52" y="30.095703"/>
<use xlink:href="#glyph-0-5" x="55" y="30.095703"/>
<use xlink:href="#glyph-0-6" x="60" y="30.095703"/>
<use xlink:href="#glyph-0-7" x="64" y="30.095703"/>
<use xlink:href="#glyph-0-8" x="66" y="30.095703"/>
<use xlink:href="#glyph-0-1" x="72" y="30.095703"/>
<use xlink:href="#glyph-0-6" x="77" y="30.095703"/>
<use xlink:href="#glyph-0-9" x="81" y="30.095703"/>
<use xlink:href="#glyph-0-10" x="84" y="30.095703"/>
<use xlink:href="#glyph-0-11" x="89" y="30.095703"/>
<use xlink:href="#glyph-0-12" x="95" y="30.095703"/>
</g>
</svg>
